/* XPM */
static char *south_wall[] = {
/* width height ncolors chars_per_pixel */
"64 64 3 1",
/* colors */
". c #00FF00",
"# c #008800",
"X c #004400",
/* pixels */
"................................................................",
"................................................................",
"..##XX##..##XX##..##XX##..##XX##..##XX##..##XX##..##XX##..##XX..",
"..##XX##..##XX##..##XX##..##XX##..##XX##..##XX##..##XX##..##XX..",
"................................................................",
"................................................................",
"..##XX##..##XX##..##XX##..##XX##..##XX##..##XX##..##XX##..##XX..",
"..##XX##..##XX##..##XX##..##XX##..##XX##..##XX##..##XX##..##XX..",
"................................................................",
"................................................................",
"..##XX##..##XX##..##XX##..##XX##..##XX##..##XX##..##XX##..##XX..",
"..##XX##..##XX##..##XX##..##XX##..##XX##..##XX##..##XX##..##XX..",
"................................................................",
"................................................................",
"..##XX##..##XX##..##XX##..##XX##..##XX##..##XX##..##XX##..##XX..",
"..##XX##..##XX##..##XX##..##XX##..##XX##..##XX##..##XX##..##XX..",
"................................................................",
"................................................................",
"..##XX##..##XX##..##XX##..##XX##..##XX##..##XX##..##XX##..##XX..",
"..##XX##..##XX##..##XX##..##XX##..##XX##..##XX##..##XX##..##XX..",
"................................................................",
"................................................................",
"..##XX##..##XX##..##XX##..##XX##..##XX##..##XX##..##XX##..##XX..",
"..##XX##..##XX##..##XX##..##XX##..##XX##..##XX##..##XX##..##XX..",
"................................................................",
"................................................................",
"..##XX##..##XX##..##XX##..##XX##..##XX##..##XX##..##XX##..##XX..",
"..##XX##..##XX##..##XX##..##XX##..##XX##..##XX##..##XX##..##XX..",
"................................................................",
"................................................................",
"..##XX##..##XX##..##XX##..##XX##..##XX##..##XX##..##XX##..##XX..",
"..##XX##..##XX##..##XX##..##XX##..##XX##..##XX##..##XX##..##XX..",
"................................................................",
"................................................................",
"..##XX##..##XX##..##XX##..##XX##..##XX##..##XX##..##XX##..##XX..",
"..##XX##..##XX##..##XX##..##XX##..##XX##..##XX##..##XX##..##XX..",
"................................................................",
"................................................................",
"..##XX##..##XX##..##XX##..##XX##..##XX##..##XX##..##XX##..##XX..",
"..##XX##..##XX##..##XX##..##XX##..##XX##..##XX##..##XX##..##XX..",
"................................................................",
"................................................................",
"..##XX##..##XX##..##XX##..##XX##..##XX##..##XX##..##XX##..##XX..",
"..##XX##..##XX##..##XX##..##XX##..##XX##..##XX##..##XX##..##XX..",
"................................................................",
"................................................................",
"..##XX##..##XX##..##XX##..##XX##..##XX##..##XX##..##XX##..##XX..",
"..##XX##..##XX##..##XX##..##XX##..##XX##..##XX##..##XX##..##XX..",
"................................................................",
"................................................................",
"..##XX##..##XX##..##XX##..##XX##..##XX##..##XX##..##XX##..##XX..",
"..##XX##..##XX##..##XX##..##XX##..##XX##..##XX##..##XX##..##XX..",
"................................................................",
"................................................................",
"..##XX##..##XX##..##XX##..##XX##..##XX##..##XX##..##XX##..##XX..",
"..##XX##..##XX##..##XX##..##XX##..##XX##..##XX##..##XX##..##XX..",
"................................................................",
"................................................................",
"..##XX##..##XX##..##XX##..##XX##..##XX##..##XX##..##XX##..##XX..",
"..##XX##..##XX##..##XX##..##XX##..##XX##..##XX##..##XX##..##XX..",
"................................................................",
"................................................................",
"..##XX##..##XX##..##XX##..##XX##..##XX##..##XX##..##XX##..##XX..",
"..##XX##..##XX##..##XX##..##XX##..##XX##..##XX##..##XX##..##XX..",
"................................................................",
"................................................................"
};